<svg width="27" height="27" viewBox="0 0 27 27" fill="none" xmlns="http://www.w3.org/2000/svg">
<rect width="27" height="27" fill="#1E1E1E"/>
<g id="Product detail">
<rect width="1440" height="8204" transform="translate(-870 -758)" fill="white"/>
<g id="Frame 211">
<g id="Frame 278">
<g id="Frame 210">
<g id="Frame 203">
<g id="Frame 198">
<g id="Frame 197">
<g id="RunningBar">
<rect x="-179" y="-13" width="690" height="53" rx="10" fill="#F6F6F6"/>
<g id="Frame 13">
<g id="Frame 20">
<rect width="27" height="27" fill="#F6F6F6"/>
<g id="Frame" clip-path="url(#clip0_0_1)">
<path id="Vector" d="M20.2182 15.5358L20.7341 15.2397C21.6486 14.7147 22.0212 13.6068 21.6008 12.6615L21.3629 12.1288C21.1971 11.7561 21.1971 11.3285 21.3629 10.9561L21.6008 10.4225C22.0212 9.47802 21.6486 8.36986 20.7347 7.84518L20.2182 7.54873C19.8571 7.34134 19.5974 6.99536 19.5046 6.59954L19.3728 6.03309C19.1384 5.03017 18.16 4.34348 17.1051 4.44006L16.5074 4.49351C16.0892 4.53024 15.6677 4.39886 15.3528 4.13137L14.9018 3.74835C14.1026 3.06972 12.8976 3.06972 12.098 3.74835L11.6471 4.13137C11.3318 4.39887 10.9123 4.53136 10.4931 4.49351L9.89535 4.44006C8.83751 4.34179 7.86115 5.03044 7.62708 6.03336L7.4949 6.59954C7.40249 6.99536 7.14277 7.34135 6.78172 7.54874L6.26575 7.84518C5.35128 8.37018 4.979 9.47829 5.39936 10.4227L5.63661 10.9558C5.80247 11.3285 5.80247 11.7561 5.63661 12.1288L5.39936 12.6618C4.979 13.6063 5.35128 14.7147 6.26575 15.2397L6.78172 15.5358C7.14248 15.7435 7.40249 16.0892 7.4949 16.485L7.50628 16.5337L5.50343 20.3683C5.30442 20.7498 5.34754 21.1987 5.61619 21.5386C5.88817 21.8785 6.32597 22.0324 6.75715 21.9426L8.44205 21.5963L9.15515 23.113C9.33757 23.5041 9.72563 23.751 10.1701 23.7607H10.1933C10.6278 23.7607 11.0158 23.5298 11.2115 23.1546L12.978 19.7749C13.1497 19.8167 13.324 19.8454 13.5 19.8454C13.6761 19.8454 13.8504 19.8167 14.022 19.7748L15.7886 23.1546C15.9843 23.5298 16.3723 23.7607 16.8035 23.7607H16.8301C17.2745 23.751 17.6625 23.5041 17.845 23.113L18.5548 21.5963L20.2397 21.9426C20.6741 22.0324 21.1119 21.8785 21.3806 21.5386C21.6526 21.1987 21.6957 20.7498 21.4967 20.3683L19.493 16.5351L19.5046 16.485C19.5974 16.0892 19.8571 15.7435 20.2182 15.5358ZM10.6841 22.8982C10.588 23.0841 10.3956 23.222 10.18 23.1899C9.96443 23.1867 9.78201 23.0681 9.69246 22.8789L8.88318 21.1538C8.83342 21.048 8.72729 20.9839 8.61453 20.9839C8.59462 20.9839 8.57141 20.9871 8.55151 20.9903L6.63443 21.3847C6.42216 21.4296 6.21652 21.3558 6.08387 21.1891C5.95119 21.0224 5.93129 20.8108 6.02747 20.6248L7.73156 17.3617C8.07568 18.1893 8.94798 18.723 9.89539 18.6445L10.4934 18.5911C10.9106 18.551 11.3313 18.6846 11.6471 18.9535L12.098 19.3365C12.2009 19.4238 12.311 19.4989 12.4256 19.5638L10.6841 22.8982ZM12.4873 18.9078L12.0364 18.5248C11.6483 18.1958 11.1458 18.0143 10.6333 18.0143C10.5685 18.0143 10.5038 18.0177 10.439 18.0232L9.84123 18.0766C9.07361 18.1479 8.37164 17.6497 8.20234 16.9254L8.07019 16.3592C7.94235 15.8114 7.58244 15.3326 7.08288 15.0459L6.56691 14.7498C5.9064 14.3701 5.6372 13.5695 5.94124 12.8873L6.17849 12.3542C6.40798 11.8382 6.40798 11.2464 6.17849 10.7303L5.94124 10.1973C5.63748 9.51504 5.9064 8.71448 6.56691 8.33507L7.08288 8.03865C7.58243 7.75163 7.94235 7.27287 8.07019 6.7248L8.20234 6.15891C8.37135 5.43407 9.07476 4.9372 9.84123 5.00791L10.439 5.06136C11.0174 5.11311 11.5999 4.93025 12.0364 4.55948L12.4873 4.17674C13.0655 3.68628 13.9362 3.68712 14.5126 4.17646L14.9635 4.55948C15.4006 4.93024 15.9845 5.11117 16.5615 5.06135L17.1592 5.0079C17.928 4.93664 18.6282 5.43462 18.7981 6.15862L18.9299 6.72479C19.0578 7.27287 19.4177 7.75191 19.917 8.03865L20.4335 8.33507C21.0934 8.71448 21.3624 9.51504 21.0595 10.197L20.8217 10.7303C20.5919 11.2464 20.5919 11.8382 20.8217 12.3545L21.0595 12.887C21.3629 13.5698 21.0934 14.3707 20.4335 14.7498L19.9176 15.0459C19.4177 15.3326 19.0578 15.8114 18.9299 16.3598L18.7981 16.9254C18.6282 17.6497 17.924 18.1479 17.1592 18.0766L16.5615 18.0232C15.9862 17.9731 15.4006 18.1546 14.9635 18.5248L14.5126 18.9078C13.9362 19.3989 13.0649 19.3983 12.4873 18.9078ZM20.9129 21.1891C20.7803 21.3558 20.5713 21.4296 20.3624 21.3847L18.4453 20.9903C18.3093 20.9678 18.1734 21.032 18.1169 21.1538L17.3077 22.8789C17.2181 23.0681 17.0357 23.1867 16.8168 23.1899H16.8035C16.5946 23.1899 16.4088 23.0809 16.3127 22.8982L14.5718 19.565C14.6873 19.4998 14.7982 19.4244 14.9018 19.3365L15.3528 18.9535C15.6677 18.6851 16.0847 18.551 16.5074 18.5911L17.1051 18.6445C18.0519 18.7223 18.921 18.1917 19.2665 17.3669L20.9693 20.6248C21.0688 20.8108 21.0456 21.0224 20.9129 21.1891ZM19.2052 11.5423C19.2052 8.50042 16.6455 6.02585 13.4993 6.02585C10.3529 6.02585 7.79291 8.50042 7.79291 11.5423C7.79291 14.5844 10.3529 17.059 13.4993 17.059C16.6455 17.059 19.2052 14.5844 19.2052 11.5423ZM13.4993 16.4889C10.678 16.4889 8.3826 14.2699 8.3826 11.5423C8.3826 8.81496 10.678 6.59592 13.4993 6.59592C16.3202 6.59592 18.6155 8.81496 18.6155 11.5423C18.6155 14.2699 16.3202 16.4889 13.4993 16.4889ZM16.3012 10.1318L14.9675 9.84155L14.269 8.70444C14.1063 8.43893 13.8184 8.28024 13.4991 8.28024C13.18 8.28024 12.8921 8.43893 12.7292 8.70444L12.0315 9.84155L10.6967 10.1318C10.3854 10.1998 10.1407 10.4155 10.0419 10.7089C9.94342 11.0023 10.0102 11.316 10.221 11.5476L11.1243 12.541L10.9973 13.8577C10.9679 14.1647 11.1041 14.4564 11.3624 14.6379C11.6203 14.8194 11.95 14.8533 12.2431 14.7325L13.4993 14.2092L14.7556 14.7325C14.8708 14.7804 14.9917 14.8043 15.1115 14.8043C15.2969 14.8043 15.4795 14.7481 15.6366 14.6373C15.8946 14.4558 16.0311 14.1647 16.0012 13.8577L15.8745 12.541L16.778 11.5476C16.9882 11.3157 17.055 11.002 16.9565 10.7086C16.858 10.4152 16.6128 10.1998 16.3012 10.1318ZM16.3346 11.1713L15.3476 12.2568C15.294 12.3156 15.2681 12.3932 15.2756 12.4714L15.4138 13.9108C15.4288 14.0617 15.332 14.1469 15.2894 14.1764C15.2474 14.207 15.1322 14.2682 14.9888 14.2092L13.616 13.6372C13.5788 13.6216 13.5391 13.6138 13.4993 13.6138C13.4596 13.6138 13.4199 13.6216 13.3828 13.6372L12.0099 14.2092C11.8654 14.2693 11.7514 14.207 11.709 14.1764C11.6667 14.1469 11.57 14.0617 11.5846 13.9105L11.7231 12.4714C11.7306 12.3932 11.7044 12.3158 11.6509 12.2568L10.6638 11.1713C10.5602 11.0571 10.5867 10.933 10.6028 10.8851C10.6189 10.8369 10.673 10.7214 10.8262 10.688L12.2849 10.3707C12.3641 10.3534 12.4323 10.3056 12.4738 10.2379L13.2365 8.99506C13.3165 8.8645 13.447 8.8503 13.4991 8.8503C13.5515 8.8503 13.6819 8.8645 13.7619 8.99506L14.5252 10.2382C14.5667 10.3056 14.6347 10.3534 14.7141 10.3707L16.1722 10.688C16.3254 10.7214 16.3795 10.8369 16.3956 10.8851C16.4117 10.933 16.4383 11.0574 16.3346 11.1713Z" fill="black"/>
</g>
</g>
</g>
</g>
</g>
</g>
</g>
</g>
</g>
</g>
</g>
<defs>
<clipPath id="clip0_0_1">
<rect width="17" height="21" fill="white" transform="translate(5 3)"/>
</clipPath>
</defs>
</svg>
